<svg xmlns="http://www.w3.org/2000/svg" viewBox="0 0 256 256">
  <path d="M239.966.006a168.294 168.294 0 00-33.5 3.338 163.163 163.163 0 00-31.72 9.684 169.567 169.567 0 00-29.384 15.692 168.17 168.17 0 00-25.933 21.26L89.378 80.03h-47.97L1.34 119.989l28.382 28.382-9.126 27.268c-5.12 5.713-9.09 11.576-11.908 17.585a87.16 87.16 0 00-6.122 18.81C1.304 218.638.56 225.573.338 232.847a758.42 758.42 0 00-.334 23.15H16.03c6.011 0 11.872-.298 17.586-.893A93.672 93.672 0 0050.2 251.88a76.862 76.862 0 0015.694-6.233c5.046-2.672 9.869-6.083 14.47-10.24l27.267-9.127 28.382 28.382 39.956-40.068v-47.97l30.051-30.052a168.17 168.17 0 0021.258-25.934 169.563 169.563 0 0015.694-29.383 163.165 163.165 0 009.684-31.72 168.204 168.204 0 003.338-33.5V.007zm0 16.028a153.58 153.58 0 01-3.671 33.5 154.67 154.67 0 01-10.908 31.943c-1.384 3.248-1.853 4.187-3.675 7.568a161.08 161.08 0 01-12.24 19.144 152.049 152.049 0 01-14.693 17.029l-34.896 34.896.059 47.913-23.929 23.928-25.695-25.558-16.891 5.314-49.286-49.365 5.105-17.02-25.201-25.338 23.93-23.93 47.492.184 35.315-35.02a152.044 152.044 0 0117.027-14.694 161.076 161.076 0 0119.146-12.242c3.024-1.706 3.963-2.177 7.567-3.671a144.153 144.153 0 0131.833-10.909 154.982 154.982 0 0133.611-3.672zM37.512 181.536l8.459 8.459c-2.449 2.373-4.527 4.86-6.232 7.457a47.43 47.43 0 00-4.12 8.236 56.92 56.92 0 00-2.445 8.792 120.105 120.105 0 00-1.226 9.572 92.966 92.966 0 009.57-1.335 44.096 44.096 0 008.794-2.45 38.849 38.849 0 008.236-4.116c2.596-1.634 5.082-3.675 7.457-6.122l8.46 8.46c-3.488 4.45-7.493 8.049-12.02 10.794a60.638 60.638 0 01-14.472 6.568 75.702 75.702 0 01-15.914 3.228 147.206 147.206 0 01-16.027.89c0-5.268.26-10.649.78-16.14a86.406 86.406 0 013.227-15.802 67.1 67.1 0 016.566-14.47c2.82-4.527 6.456-8.534 10.907-12.02z"/>
</svg>
