<svg xmlns="http://www.w3.org/2000/svg" viewBox="0 0 554.922 554.922">
  <path d="M515.805 5c-24.166 0-47.936 2.369-71.313 7.107a347.324 347.324 0 00-67.523 20.614c-21.797 9.003-42.648 20.136-62.55 33.404-19.743 13.11-38.142 28.195-55.2 45.254l-63.97 63.969H93.134L7.844 260.402l60.414 60.416-19.428 58.045c-10.898 12.162-19.347 24.64-25.35 37.434-5.844 12.794-10.188 26.141-13.03 40.04-2.686 14.058-4.265 28.827-4.74 44.306-.473 15.479-.71 31.905-.71 49.279h34.117c12.794 0 25.272-.633 37.434-1.897 12.162-1.263 23.928-3.552 35.3-6.869 11.53-3.159 22.666-7.581 33.407-13.267 10.74-5.686 21.008-12.952 30.8-21.797l58.046-19.428 60.416 60.414c13.48-15.157 13.48-35.157.025-48.48l-54.723-54.258-35.955 11.312L98.951 350.568l10.871-36.228-53.646-53.938 50.937-50.937 101.098.39 75.174-74.548a323.654 323.654 0 0136.248-31.274 342.878 342.878 0 0140.752-26.06c6.437-3.633 8.437-4.633 16.11-7.819 21.796-10.424 44.383-18.164 67.759-23.218a329.909 329.909 0 0171.55-7.819c0 24.166-2.605 47.936-7.818 71.313-5.212 23.376-12.952 46.043-23.218 67.998-2.946 6.912-3.946 8.912-7.819 16.11-3.87 7.107-12.056 20.323-12.056 20.323 30.619 3.755 58.106-39.095 67.148-63.24 4.952-13.286 8.014-27.203 10.773-41.191 4.739-23.377 7.108-47.147 7.108-71.313V5zM84.844 391.42l18.006 18.006c-5.213 5.054-9.635 10.347-13.268 15.875a100.964 100.964 0 00-8.768 17.531c-2.21 6.002-3.947 12.24-5.21 18.717-1.106 6.476-1.976 13.27-2.608 20.377 7.108-.632 13.9-1.58 20.375-2.844a93.863 93.863 0 0018.719-5.213 82.698 82.698 0 0017.531-8.765c5.528-3.475 10.819-7.82 15.873-13.032l18.008 18.006c-7.424 9.477-15.953 17.138-25.588 22.983a129.078 129.078 0 01-30.8 13.978c-10.9 3.475-22.191 5.766-33.88 6.871-11.53 1.264-22.902 1.895-34.117 1.895 0-11.215.553-22.666 1.658-34.354 1.264-11.53 3.555-22.744 6.871-33.642 3.475-10.899 8.135-21.166 13.979-30.801 6.002-9.635 13.742-18.165 23.219-25.588z"/>
</svg>
