<svg xmlns="http://www.w3.org/2000/svg" viewBox="0 0 256 256">
  <path d="M239.97.01c-11.353 0-22.52 1.113-33.502 3.34a163.174 163.174 0 00-31.723 9.684 169.574 169.574 0 00-29.386 15.693c-9.275 6.159-17.92 13.246-25.933 21.26L89.373 80.04H41.399l-40.07 39.959 28.383 28.383-9.127 27.27c-5.12 5.714-9.09 11.576-11.91 17.586a87.14 87.14 0 00-6.121 18.811C1.292 218.654.55 225.592.327 232.864a759.778 759.778 0 00-.334 23.152h16.029c6.01 0 11.872-.298 17.586-.892a93.643 93.643 0 0016.584-3.227 76.88 76.88 0 0015.695-6.232c5.046-2.672 9.87-6.085 14.47-10.24l27.27-9.128 28.383 28.383c6.333-7.121 6.333-16.517.012-22.776l-25.709-25.491-16.892 5.314-49.29-49.368 5.108-17.02-25.203-25.34 23.93-23.93 47.496.182L130.78 61.23a152.053 152.053 0 0117.03-14.693 161.085 161.085 0 0119.145-12.243c3.024-1.707 3.964-2.177 7.568-3.673 10.24-4.898 20.852-8.534 31.834-10.908a154.992 154.992 0 0133.614-3.674c0 11.354-1.224 22.52-3.673 33.503-2.448 10.983-6.085 21.632-10.908 31.946-1.384 3.247-1.853 4.187-3.673 7.569-1.818 3.338-5.664 9.547-5.664 9.547 14.385 1.764 27.298-18.367 31.546-29.71 2.327-6.242 3.765-12.78 5.062-19.352 2.226-10.982 3.339-22.15 3.339-33.503V.01zM37.505 181.551l8.46 8.46c-2.45 2.374-4.527 4.86-6.234 7.457a47.433 47.433 0 00-4.12 8.237 56.944 56.944 0 00-2.447 8.793c-.52 3.042-.928 6.234-1.225 9.573 3.34-.297 6.53-.742 9.572-1.336a44.097 44.097 0 008.794-2.45 38.852 38.852 0 008.237-4.117c2.597-1.633 5.082-3.674 7.457-6.122l8.46 8.459c-3.488 4.452-7.495 8.051-12.021 10.797a60.641 60.641 0 01-14.47 6.567 75.692 75.692 0 01-15.917 3.228c-5.417.594-10.76.89-16.028.89 0-5.268.26-10.648.779-16.14a86.586 86.586 0 013.228-15.804 67.098 67.098 0 016.567-14.47c2.82-4.527 6.456-8.535 10.908-12.022z"/>
</svg>
