<svg xmlns="http://www.w3.org/2000/svg" viewBox="0 0 1347.693 554.922">
  <path d="M515.805 5c-24.166 0-47.936 2.369-71.313 7.107a347.324 347.324 0 00-67.523 20.614c-21.797 9.003-42.648 20.136-62.55 33.404-19.743 13.11-38.142 28.195-55.2 45.254l-63.97 63.969H93.134l-85.29 85.054 60.414 60.416-19.428 58.045c-10.898 12.162-19.347 24.64-25.35 37.434-5.844 12.794-10.188 26.141-13.03 40.04-2.686 14.058-4.265 28.827-4.74 44.306-.473 15.479-.71 31.905-.71 49.279h34.117c12.794 0 25.272-.633 37.434-1.897 12.162-1.263 23.928-3.552 35.3-6.869 11.53-3.159 22.666-7.581 33.407-13.267 10.74-5.686 21.008-12.952 30.8-21.797l58.046-19.428 60.416 60.414c13.48-15.157 13.48-35.157.025-48.48l-54.723-54.258-35.955 11.312L98.951 350.568l10.871-36.228-53.646-53.938 50.937-50.937 101.098.39 75.174-74.548a323.654 323.654 0 0136.248-31.274 342.878 342.878 0 0140.752-26.06c6.437-3.633 8.437-4.633 16.11-7.819 21.796-10.424 44.383-18.164 67.759-23.218a329.909 329.909 0 0171.55-7.819c0 24.166-2.605 47.936-7.818 71.313-5.212 23.376-12.952 46.043-23.218 67.998-2.946 6.912-3.946 8.912-7.819 16.11-3.87 7.107-12.056 20.323-12.056 20.323 30.619 3.755 58.106-39.095 67.148-63.24 4.952-13.286 8.014-27.203 10.773-41.191 4.739-23.377 7.108-47.147 7.108-71.313V5zM84.844 391.42l18.006 18.006c-5.213 5.054-9.635 10.347-13.268 15.875a100.964 100.964 0 00-8.768 17.531 121.207 121.207 0 00-5.21 18.717c-1.106 6.476-1.976 13.27-2.608 20.377 7.108-.632 13.9-1.58 20.375-2.844a93.863 93.863 0 0018.719-5.213 82.698 82.698 0 0017.531-8.765c5.528-3.475 10.819-7.82 15.873-13.032l18.008 18.006c-7.424 9.477-15.953 17.138-25.588 22.983a129.078 129.078 0 01-30.8 13.978c-10.9 3.475-22.191 5.766-33.88 6.871-11.53 1.264-22.902 1.895-34.117 1.895 0-11.215.553-22.666 1.658-34.354 1.264-11.53 3.555-22.744 6.871-33.642 3.475-10.899 8.135-21.166 13.979-30.801 6.002-9.635 13.742-18.165 23.219-25.588z"/>
  <path d="M357.091 390.206H335.05l-10.894-30.826h-47.632l-10.472 30.826h-21.958L289.445 269.1h22.633zm-38.257-47.21l-16.806-48.307q-.76-2.364-1.605-7.6h-.337q-.76 4.813-1.69 7.6l-16.637 48.308zm41.378 44.507v-18.157q10.98 8.36 24.238 8.36 17.735 0 17.735-10.471 0-2.956-1.52-4.983-1.52-2.112-4.138-3.716-2.533-1.605-6.08-2.872-3.463-1.266-7.77-2.87-5.32-2.112-9.628-4.477-4.222-2.365-7.094-5.32-2.787-3.04-4.223-6.841-1.435-3.8-1.435-8.868 0-6.25 2.956-10.979 2.955-4.813 7.938-8.023 4.983-3.293 11.317-4.898 6.334-1.689 13.09-1.689 11.992 0 21.451 3.631v17.144q-9.12-6.25-20.944-6.25-3.716 0-6.756.761-2.956.76-5.068 2.111-2.11 1.352-3.293 3.294-1.183 1.858-1.183 4.138 0 2.787 1.183 4.73 1.182 1.942 3.462 3.462 2.365 1.436 5.574 2.703 3.294 1.182 7.517 2.618 5.573 2.28 9.965 4.645 4.476 2.364 7.6 5.405 3.126 2.955 4.815 6.925 1.689 3.885 1.689 9.29 0 6.587-3.04 11.485-3.041 4.898-8.108 8.108-5.067 3.209-11.74 4.729-6.586 1.605-13.934 1.605-14.188 0-24.576-4.73zm68.657 0v-18.157q10.979 8.36 24.238 8.36 17.735 0 17.735-10.471 0-2.956-1.52-4.983-1.52-2.112-4.138-3.716-2.534-1.605-6.081-2.872-3.463-1.266-7.77-2.87-5.32-2.112-9.627-4.477-4.223-2.365-7.094-5.32-2.787-3.04-4.223-6.841-1.436-3.8-1.436-8.868 0-6.25 2.956-10.979 2.956-4.813 7.939-8.023 4.982-3.293 11.316-4.898 6.334-1.689 13.09-1.689 11.993 0 21.452 3.631v17.144q-9.121-6.25-20.945-6.25-3.716 0-6.756.761-2.956.76-5.067 2.111-2.111 1.352-3.294 3.294-1.182 1.858-1.182 4.138 0 2.787 1.182 4.73 1.183 1.942 3.463 3.462 2.364 1.436 5.574 2.703 3.293 1.182 7.516 2.618 5.574 2.28 9.965 4.645 4.476 2.364 7.601 5.405 3.125 2.955 4.814 6.925 1.69 3.885 1.69 9.29 0 6.587-3.041 11.485-3.04 4.898-8.108 8.108-5.067 3.209-11.739 4.729-6.587 1.605-13.934 1.605-14.188 0-24.576-4.73zm147.282-35.217h-58.948q.338 11.993 7.347 18.496 7.094 6.502 19.424 6.502 13.85 0 25.42-8.276v15.793q-11.823 7.432-31.247 7.432-19.086 0-29.98-11.74-10.81-11.823-10.81-33.19 0-20.184 11.907-32.852 11.993-12.752 29.728-12.752t27.447 11.401q9.712 11.401 9.712 31.67zm-18.917-13.85q-.085-10.557-4.983-16.384-4.898-5.912-13.513-5.912-8.445 0-14.357 6.166-5.827 6.165-7.178 16.13zm160.879 51.77H698.52V343.08q0-13.597-3.885-19.678-3.8-6.08-12.922-6.08-7.685 0-13.09 7.685-5.32 7.685-5.32 18.41v46.788h-19.678v-48.73q0-24.153-17.06-24.153-7.938 0-13.09 7.263-5.067 7.263-5.067 18.833v46.787h-19.593v-86.48h19.593v13.681h.338q9.374-15.708 27.278-15.708 8.952 0 15.624 4.983 6.756 4.898 9.206 12.921 9.627-17.904 28.714-17.904 28.545 0 28.545 35.217zm38-12.499h-.338v12.499h-19.593V262.175h19.593v56.752h.338q10.05-17.228 29.39-17.228 16.383 0 25.589 11.654 9.29 11.57 9.29 31.08 0 21.704-10.388 34.794-10.388 13.006-28.376 13.006-16.891 0-25.505-14.526zm-.507-34.373v10.726q0 9.459 5.996 16.046 6.08 6.587 15.37 6.587 10.895 0 17.06-8.445 6.25-8.53 6.25-23.731 0-12.753-5.828-19.931-5.742-7.263-15.623-7.263-10.473 0-16.891 7.432-6.334 7.432-6.334 18.58zm98.637 46.872h-19.677V262.175h19.677zm94.499-86.48l-39.017 100.33q-12.161 26.856-34.119 26.856-6.165 0-10.303-1.098v-16.3q4.645 1.52 8.445 1.52 10.979 0 16.384-10.81l5.827-14.187-34.372-86.311h21.704l20.607 62.833q.338 1.182 1.52 6.25h.422q.423-1.943 1.52-6.081l21.62-63.002zM953.13 385.307v-16.721q2.872 2.533 6.84 4.56 4.055 2.027 8.446 3.463 4.476 1.351 8.952 2.111 4.476.76 8.277.76 13.09 0 19.508-4.814 6.503-4.898 6.503-14.019 0-4.898-2.196-8.53-2.111-3.631-5.911-6.587-3.8-3.04-9.037-5.743-5.152-2.787-11.148-5.827-6.334-3.21-11.823-6.503-5.49-3.294-9.543-7.263-4.054-3.97-6.419-8.952-2.28-5.067-2.28-11.823 0-8.277 3.632-14.357 3.631-6.165 9.543-10.135 5.911-3.969 13.428-5.911 7.6-1.943 15.455-1.943 17.904 0 26.096 4.307v15.962q-10.726-7.432-27.532-7.432-4.645 0-9.29 1.014-4.645.929-8.276 3.124-3.632 2.196-5.912 5.659-2.28 3.462-2.28 8.445 0 4.645 1.689 8.023 1.773 3.378 5.151 6.165 3.379 2.787 8.192 5.405 4.899 2.618 11.233 5.743 6.503 3.21 12.33 6.756 5.827 3.547 10.219 7.854 4.391 4.307 6.925 9.543 2.618 5.237 2.618 11.993 0 8.952-3.547 15.201-3.463 6.165-9.459 10.05-5.912 3.885-13.681 5.574-7.77 1.774-16.384 1.774-2.872 0-7.094-.507-4.223-.422-8.614-1.351-4.392-.845-8.361-2.112-3.885-1.35-6.25-2.956zm148.634.929q-9.966 5.997-23.647 5.997-18.495 0-29.897-11.993-11.316-12.076-11.316-31.247 0-21.367 12.245-34.288 12.246-13.006 32.684-13.006 11.4 0 20.1 4.223v14.188q-9.628-6.756-20.607-6.756-13.26 0-21.789 9.543-8.445 9.458-8.445 24.913 0 15.202 7.938 23.985 8.023 8.783 21.451 8.783 11.317 0 21.283-7.516zm60.211-68.491q-3.632-2.787-10.472-2.787-8.868 0-14.864 8.36-5.912 8.362-5.912 22.803v44.085h-13.85v-86.48h13.85v17.82h.338q2.956-9.121 9.036-14.189 6.081-5.151 13.597-5.151 5.405 0 8.277 1.182zm16.126-35.977q-3.715 0-6.334-2.534-2.618-2.533-2.618-6.418 0-3.885 2.619-6.418 2.618-2.618 6.333-2.618 3.8 0 6.419 2.618 2.702 2.533 2.702 6.418 0 3.716-2.702 6.334-2.618 2.618-6.418 2.618zm6.757 108.438h-13.85v-86.48h13.85zm36.226-12.499h-.338v52.276h-13.85V303.726h13.85v15.201h.338q10.219-17.228 29.897-17.228 16.721 0 26.096 11.654 9.374 11.57 9.374 31.08 0 21.704-10.557 34.794-10.556 13.006-28.883 13.006-16.806 0-25.927-14.526zm-.338-34.88v12.077q0 10.726 6.926 18.242 7.01 7.432 17.735 7.432 12.583 0 19.677-9.628 7.179-9.627 7.179-26.771 0-14.442-6.672-22.634-6.672-8.191-18.073-8.191-12.077 0-19.424 8.445-7.348 8.36-7.348 21.029zm121.947 46.534q-4.898 2.703-12.921 2.703-22.718 0-22.718-25.336v-51.179h-14.864v-11.823h14.864v-21.113l13.85-4.476v25.589h21.789v11.823h-21.79v48.73q0 8.698 2.957 12.414 2.956 3.716 9.796 3.716 5.236 0 9.037-2.871z"/>
</svg>
